<svg width="81" height="213" viewBox="0 0 81 213" fill="none" xmlns="http://www.w3.org/2000/svg">
<g clip-path="url(#clip0_975_2948)">
<path d="M23.9421 0C24.5514 1.14034 25.2682 2.23996 25.7461 3.44818C27.7531 8.53901 29.366 13.8606 31.7434 18.6935C33.5474 22.3589 34.6226 26.3637 36.4744 29.9883C37.3346 31.6853 38.2664 32.4048 40.166 32.5134C43.762 32.717 47.3819 33.4094 50.8943 34.3868C53.0328 34.9841 53.4868 33.8709 54.0483 32.0925C54.7054 30.0155 55.3863 27.8977 56.3421 25.9971C59.2571 20.214 62.208 14.4308 65.4098 8.85124C66.0549 7.72447 67.8947 7.48012 69.7943 6.51625C69.7943 9.39426 69.9138 11.4306 69.7704 13.4262C68.97 25.0197 68.0381 36.5996 67.3452 48.1931C67.2615 49.6185 68.289 51.1119 68.8983 52.8495C66.9868 55.3338 67.2018 58.8363 67.3213 62.366C67.4527 66.4794 68.2651 70.7149 66.0191 75.1948C65.6726 70.3212 65.3739 66.0992 65.0872 61.8773C64.7766 61.8773 64.466 61.8773 64.1553 61.8773C63.9403 63.4656 63.8806 65.0947 63.4983 66.6151C62.7815 69.4931 61.8377 72.3033 61.085 75.1677C60.5713 77.109 60.2129 79.1182 59.7828 81.0866C59.9978 81.1545 60.2129 81.2359 60.4279 81.3038C60.3084 81.4124 60.2009 81.5753 60.0576 81.6296C59.0062 82.1184 57.0947 80.0685 56.8558 82.7293C56.6527 85.0235 55.685 87.2092 58.2416 89.4899C61.4912 92.3815 63.9403 96.5084 66.5447 100.255C70.2961 105.658 73.8921 111.211 77.5478 116.695C77.9779 117.347 78.4438 117.958 79.3876 119.275C78.0615 119.057 77.4523 118.962 76.6518 118.827C78.1213 121.718 79.5549 124.501 81.0124 127.366C77.4284 128.737 75.4332 126.497 73.4739 124.175C69.4478 119.383 65.5173 114.51 61.4076 109.826C59.2093 107.315 56.7124 105.129 53.9408 102.373C53.3912 105.685 52.7938 108.591 52.4354 111.537C52.0412 114.835 51.7306 118.148 51.635 121.474C51.5992 122.845 51.9337 124.433 52.5788 125.574C54.4067 128.818 56.5691 131.832 58.4447 135.049C60.9297 139.298 63.1876 143.711 65.6846 147.96C68.4443 152.63 68.6832 157.978 69.4837 163.626C68.3368 163.3 67.5124 163.056 66.2938 162.703C65.2067 166.205 64.1195 169.721 63.0323 173.251C61.6107 177.853 60.2846 182.496 58.7076 187.016C57.477 190.546 57.4651 191.008 60.3682 192.664C64.2987 194.904 67.1899 198.053 67.5841 203.321C67.8469 206.769 66.2461 209.918 63.785 211.289C61.073 212.796 58.9226 211.045 56.82 209.633C53.4868 207.407 51.7186 203.619 49.9266 199.913C48.7438 197.47 48.5288 195.08 50.3925 192.854C50.6673 192.515 50.9899 192.121 51.0615 191.686C51.9217 187.03 52.8536 182.401 53.5465 177.717C54.55 170.929 55.4102 164.101 56.2226 157.272C56.3301 156.39 56.0434 155.182 55.5297 154.517C53.7377 152.168 51.8261 149.928 49.8669 147.756C48.708 146.466 48.0748 144.172 45.6377 145.027C45.1598 145.204 44.204 143.67 43.0452 142.502C39.7717 146.018 36.3908 149.317 33.3682 152.996C31.2894 155.521 32.1615 158.956 32.3407 162.01C32.95 172.083 33.6669 182.143 34.3478 192.216C34.3837 192.691 34.3478 193.166 34.4434 193.614C35.7815 199.438 34.6704 203.877 30.2142 206.85C26.5226 209.321 22.377 210.909 18.4226 212.851C18.0761 213.027 17.4549 213.122 17.2279 212.891C16.4633 212.145 15.2567 211.276 15.2208 210.394C15.1133 207.923 11.4576 205.819 14.4084 203.158C18.4584 199.52 21.8036 194.85 26.7138 192.433C27.4425 192.08 28.0996 190.451 28.0757 189.433C28.0279 187.193 27.55 184.967 27.2275 182.74C26.7257 179.306 26.2239 175.857 25.7102 172.423C25.5549 171.377 25.3877 170.319 25.2323 169.273C24.9456 169.3 24.6469 169.341 24.3602 169.368C24.8142 175.124 25.2562 180.867 25.7102 186.623C25.316 186.731 24.9217 186.84 24.5275 186.949C24.2646 186.08 23.8584 185.224 23.7629 184.328C22.8907 176.55 22.0784 168.757 21.254 160.979C21.2182 160.598 21.3138 160.001 21.1465 159.879C18.6018 158.06 20.5133 155.576 20.3461 154.218C21.8872 152.467 23.3447 151.326 24.181 149.765C28.2549 142.176 32.293 134.547 36.0323 126.741C37 124.705 37.0837 122.139 38.9952 120.619C39.258 120.401 39.1146 119.342 38.9952 118.718C38.1111 114.496 37.0956 110.315 36.3071 106.079C35.9607 104.206 35.1961 103.554 33.5832 102.848C29.808 101.192 26.0567 99.2235 22.6877 96.6985C18.3151 93.4132 14.3965 89.3541 10.1434 85.8652C8.54252 84.5484 6.51155 83.9239 4.30137 82.7836C4.30137 82.6885 4.40889 81.8197 4.49252 81.0052C3.40535 80.7472 2.2465 80.7065 1.2788 80.1906C-0.369869 79.3082 -0.429604 77.3669 1.08765 76.2537C7.77792 71.3394 14.4921 66.4658 21.2062 61.6057C23.2611 60.1124 24.2407 58.3205 24.0138 55.2795C23.2969 45.5866 22.8191 35.8801 22.389 26.16C22.2695 23.4314 21.3018 20.5126 23.1655 17.9876C21.6124 12.761 23.9182 7.54799 23.1894 2.32142C23.1058 1.68337 23.1775 1.03174 23.1775 0.380115L23.9301 0L23.9421 0ZM23.4523 69.1945C20.6208 72.2897 17.7177 75.3577 14.9461 78.5887C13.7992 79.9191 14.3965 80.7744 15.8779 81.4124C19.8323 83.1094 23.7151 85.0235 27.6456 86.8019C28.912 87.3721 30.2381 87.8065 32.0062 88.4853C31.5523 83.9646 28.243 82.322 26.893 79.3354C25.4593 76.1451 24.5872 72.6291 23.4642 69.208L23.4523 69.1945ZM62.6261 204.76C62.4589 201.488 59.95 201.963 58.4328 200.972C58.385 200.931 57.5726 201.855 57.6443 202.194C57.9071 203.633 61.2761 205.316 62.6261 204.76ZM49.0784 134.276C48.72 134.574 48.3735 134.886 48.0151 135.185C49.6399 137.534 51.2527 139.882 52.8775 142.231L53.8332 141.416L49.0784 134.262V134.276ZM26.2956 37.5228C26.0208 37.4685 25.7341 37.4142 25.4593 37.3598C25.5788 40.2922 25.6983 43.2245 25.8416 46.4962C27.5261 44.1748 27.55 43.0344 26.2956 37.5092V37.5228ZM29.9036 204.162C32.9261 201.882 33.858 199.37 32.4363 196.886C31.5642 199.384 30.7757 201.651 29.9036 204.162ZM33.2846 96.9564C33.4279 93.8069 32.1018 92.7208 28.3146 92.8159C30.1545 94.3499 31.612 95.5581 33.2846 96.9564ZM60.7266 164.277C61.0969 164.305 61.4673 164.345 61.8377 164.372C61.9452 162.54 62.0527 160.707 62.1602 158.874C61.7899 158.847 61.4315 158.82 61.0611 158.793C60.9536 160.626 60.8341 162.445 60.7266 164.277ZM53.8213 194.266C53.7496 194.076 53.666 193.899 53.5943 193.709C52.7938 194.252 51.7784 194.605 51.2407 195.379C50.8704 195.922 51.1691 197.049 51.1691 198.542C52.3279 196.669 53.0686 195.474 53.8093 194.279L53.8213 194.266Z" fill="white"/>
<path d="M23.4514 69.1952C24.5863 72.6163 25.4465 76.1323 26.8801 79.3226C28.2301 82.3092 31.5394 83.9382 31.9934 88.4725C30.2253 87.7937 28.9111 87.3593 27.6328 86.7891C23.7023 85.0107 19.8195 83.0966 15.8651 81.3996C14.3837 80.7616 13.7983 79.9063 14.9332 78.5759C17.7049 75.3585 20.608 72.2904 23.4394 69.1816L23.4514 69.1952Z" fill="#1C1815"/>
<path d="M62.6257 204.76C61.2757 205.316 57.9066 203.633 57.6438 202.194C57.5841 201.841 58.3845 200.931 58.4323 200.972C59.9496 201.977 62.4584 201.488 62.6257 204.76Z" fill="#1C1815"/>
<path d="M49.0769 134.275L53.8318 141.43L52.8761 142.244C51.2513 139.896 49.6385 137.547 48.0137 135.199C48.3721 134.9 48.7185 134.588 49.0769 134.289V134.275Z" fill="#1C1815"/>
<path d="M26.2953 37.5224C27.5497 43.0476 27.5258 44.188 25.8413 46.5094C25.7099 43.2241 25.5785 40.2918 25.459 37.373C25.7338 37.4273 26.0205 37.4816 26.2953 37.536V37.5224Z" fill="#1C1815"/>
<path d="M29.9023 204.163C30.7745 201.652 31.563 199.385 32.4351 196.887C33.8568 199.385 32.9249 201.883 29.9023 204.163Z" fill="#1C1815"/>
<path d="M33.2844 96.9564C31.6118 95.5581 30.1543 94.3499 28.3145 92.8158C32.0897 92.7072 33.4277 93.8068 33.2844 96.9564Z" fill="#1C1815"/>
<path d="M60.7266 164.277C60.8341 162.445 60.9536 160.626 61.0611 158.793C61.4314 158.82 61.7898 158.847 62.1602 158.874C62.0527 160.707 61.9451 162.54 61.8376 164.373C61.4673 164.345 61.0969 164.305 60.7266 164.277Z" fill="#1C1815"/>
<path d="M53.8205 194.266C53.0798 195.46 52.3391 196.668 51.1802 198.528C51.1802 197.048 50.8815 195.922 51.2519 195.365C51.7776 194.591 52.793 194.225 53.6054 193.695C53.6771 193.885 53.7607 194.062 53.8324 194.252L53.8205 194.266Z" fill="#1C1815"/>
</g>
<defs>
<clipPath id="clip0_975_2948">
<rect width="81" height="213" fill="white"/>
</clipPath>
</defs>
</svg>
