<svg width="95" height="238" viewBox="0 0 95 238" fill="none" xmlns="http://www.w3.org/2000/svg">
<g clip-path="url(#clip0_975_2947)">
<path d="M50.1241 50.6176C54.5055 43.6476 59.0995 36.2809 63.7644 28.9567C64.4734 27.8376 65.2107 26.2934 67.054 27.8517C67.4368 28.1776 68.5712 27.4551 69.2376 27.6392C70.3436 27.9509 71.3503 28.6026 72.6973 29.2542C71.1943 31.6626 69.7764 33.5751 68.7697 35.6859C68.1741 36.9609 68.2876 38.5476 68.0323 39.9926C66.3876 48.8042 64.7853 57.6159 63.0555 66.4134C62.5592 68.9209 61.7652 71.3576 61.0562 73.8226C60.1488 77.0242 61.0562 80.0559 61.4249 83.2292C61.7935 86.3601 60.8577 89.8734 59.7092 92.9051C58.4756 96.1492 56.2921 99.0392 54.6047 102.113C54.3495 102.567 54.5197 103.261 54.463 104.522C56.2779 102.028 56.9868 103.289 58.0928 104.578C61.5383 108.573 65.0122 112.597 68.8264 116.238C72.0876 119.354 72.6689 119.581 73.6898 122.372C65.8204 123.491 58.8018 126.763 52.1801 131.07C51.8115 131.311 51.457 131.708 51.0741 131.75C45.9271 132.317 45.7286 136.383 44.9913 140.137C44.2965 143.608 44.8353 147.291 42.3256 150.45C41.0921 152.008 41.3331 154.374 43.2898 155.876C45.998 157.944 48.9047 159.772 51.4144 162.053C53.4704 163.923 55.0018 166.359 56.9018 168.413C58.6883 170.326 60.6876 172.012 62.545 173.853C63.1831 174.491 63.6652 175.27 64.0197 175.723C56.2495 183.048 48.7913 190.074 41.1488 197.285C43.0062 198.532 44.6652 199.807 46.4518 200.827C50.195 202.938 51.9958 206.663 54.2077 210.007C55.1435 211.423 54.3353 212.401 52.6197 212.783C46.6644 214.073 39.2488 210.644 36.2286 205.218C35.8174 204.482 34.8391 204.057 34.1159 203.49C33.6338 204.184 32.8965 204.836 32.7264 205.601C32.3152 207.57 32.3294 209.624 31.8473 211.565C31.4928 212.982 30.5144 214.243 30.0182 215.631C29.848 216.127 30.0749 217.232 30.3868 217.345C32.1309 217.968 32.0033 218.804 31.4503 220.391C30.8547 222.091 31.1241 224.06 30.8831 225.888C30.2876 230.407 27.948 233.793 23.8928 235.861C22.1488 236.753 20.2062 237.674 18.3204 237.788C16.5906 237.887 14.5488 237.263 13.1592 236.258C12.4928 235.776 12.5921 233.509 13.0741 232.333C13.854 230.421 15.1868 228.735 16.3353 226.978C17.1861 225.661 18.3346 224.471 18.9159 223.054C19.9936 220.448 20.8585 217.798 23.7085 216.481C24.0913 216.311 24.4033 215.659 24.46 215.206C24.9137 211.537 25.3674 207.868 25.6652 204.198C26.1615 198.234 26.36 192.256 27.0264 186.32C27.4659 182.453 28.5152 178.656 29.2809 174.831C29.3518 174.491 29.4085 174.108 29.3518 173.783C27.6503 164.064 30.7697 154.473 30.0749 144.812C29.8055 141.143 29.1958 137.488 28.5152 133.861C28.4018 133.28 27.2107 132.657 26.4167 132.501C21.2555 131.509 16.0234 130.829 10.9047 129.668C7.33161 128.846 3.90027 127.401 1.07863 126.466C0.568179 124.327 0.213701 122.868 -0.0273438 121.819C3.37564 118.263 6.48087 114.495 10.1391 111.364C13.7831 108.262 18.1219 105.953 20.9577 101.462C18.8592 101.249 17.7249 100.413 18.3204 98.2742C18.4338 97.8776 18.1361 97.1551 17.7816 96.8717C13.9107 93.8401 13.9391 89.0942 12.5495 84.9859C12.0816 83.5834 12.0391 82.0251 11.9682 80.5234C11.954 80.0984 12.5495 79.6451 12.8615 79.2059C13.1592 79.5742 13.6697 79.9142 13.7264 80.3251C13.9391 81.9401 13.9958 83.555 14.2936 85.1701C15.4704 82.1525 14.1659 80.1267 12.6204 77.7042C10.9615 75.1259 9.9831 71.7117 9.84131 68.6092C9.50101 61.2284 9.72788 53.8051 9.92639 46.4101C10.0398 41.9192 10.6495 37.4567 10.7346 32.9659C10.7771 31.1951 10.0115 29.4101 9.69952 27.9934C10.8338 27.0017 11.6988 26.2651 12.6913 25.3867C12.9891 25.7267 13.4286 26.2084 13.9816 26.8176C14.4779 26.4351 14.9883 26.0526 15.8533 25.3867C18.6749 35.8842 21.4115 46.0842 24.3465 56.9784C32.145 49.6401 40.4824 47.6001 50.0816 50.6742L50.1241 50.6176ZM51.8824 177.055C47.9831 171.148 42.8219 171.247 37.9018 169.575C36.2003 177.197 34.8816 184.648 34.2577 192.199C34.513 192.284 34.7682 192.369 35.0376 192.454C40.7234 187.269 46.395 182.07 51.8965 177.055H51.8824ZM11.4436 121.012C17.3421 122.74 22.5174 124.256 27.5227 125.729C27.0122 124.468 26.4592 123.505 26.2465 122.485C25.6085 119.255 25.098 115.997 24.4883 112.512C20.1495 115.345 16.1368 117.966 11.4436 121.026V121.012ZM61.3398 120.643C61.5241 120.431 61.6943 120.204 61.8786 119.992C59.8085 118.164 57.8518 116.181 55.6398 114.566C54.0943 113.433 52.6197 113.773 52.1092 115.983C51.5279 118.518 50.8756 121.04 50.2518 123.562C50.8473 122.938 51.4428 122.315 52.0525 121.692C52.407 122.698 52.7473 123.689 53.1018 124.695C52.8324 124.95 52.563 125.219 52.3077 125.474C52.4779 122.726 56.9159 120.36 61.354 120.643H61.3398ZM38.001 51.2692C38.0294 51.5242 38.0577 51.7792 38.0719 52.0342H47.0756C47.0473 51.6234 47.0189 51.2267 46.9906 50.8159C43.9846 50.9717 40.9928 51.1134 37.9868 51.2692H38.001ZM49.2167 210.729C50.2376 210.616 51.0741 210.531 52.5204 210.361C51.145 208.703 50.2234 207.613 49.3018 206.508C49.1458 206.621 48.9756 206.748 48.8197 206.862C48.9331 207.981 49.0465 209.114 49.2025 210.715L49.2167 210.729ZM29.3801 57.5451C31.748 57.2051 33.3644 56.9642 35.2503 56.6951C32.8824 53.9892 31.6346 56.4967 29.3801 57.5451Z" fill="white"/>
<path d="M51.881 177.054C46.3937 182.069 40.7079 187.268 35.022 192.453C34.7668 192.368 34.5116 192.283 34.2422 192.198C34.8802 184.648 36.1847 177.21 37.8862 169.574C42.8064 171.246 47.9676 171.147 51.8668 177.054H51.881Z" fill="#1C1815"/>
<path d="M11.4434 121.012C16.1225 117.952 20.1493 115.331 24.4881 112.498C25.0978 115.983 25.6083 119.241 26.2463 122.471C26.4449 123.506 27.012 124.455 27.5225 125.716C22.5314 124.256 17.3419 122.726 11.4434 120.998V121.012Z" fill="#1C1815"/>
<path d="M61.3386 120.642C56.9005 120.358 52.4766 122.724 52.2923 125.473C52.5617 125.218 52.8311 124.948 53.0863 124.693C52.7318 123.688 52.3916 122.696 52.0371 121.69C51.4416 122.313 50.846 122.937 50.2363 123.56C50.8602 121.038 51.5124 118.517 52.0938 115.981C52.6042 113.757 54.0789 113.431 55.6244 114.564C57.8363 116.179 59.793 118.163 61.8632 119.99C61.6789 120.203 61.5087 120.429 61.3244 120.642H61.3386Z" fill="#1C1815"/>
<path d="M38.002 51.2678C41.0079 51.112 43.9997 50.9703 47.0057 50.8145C47.034 51.2253 47.0624 51.622 47.0908 52.0328H38.087C38.0587 51.7778 38.0303 51.5228 38.0161 51.2678H38.002Z" fill="#1C1815"/>
<path d="M49.2149 210.729C49.0589 209.114 48.9455 207.995 48.832 206.876C48.988 206.762 49.1582 206.635 49.3141 206.521C50.2358 207.626 51.1574 208.717 52.5328 210.375C51.0723 210.531 50.2358 210.63 49.229 210.743L49.2149 210.729Z" fill="#1C1815"/>
<path d="M29.3809 57.5459C31.6353 56.4975 32.8831 53.99 35.251 56.6959C33.3652 56.965 31.7488 57.2059 29.3809 57.5459Z" fill="#1C1815"/>
</g>
<defs>
<clipPath id="clip0_975_2947">
<rect width="95" height="238" fill="white"/>
</clipPath>
</defs>
</svg>
