<svg width="72" height="217" viewBox="0 0 72 217" fill="none" xmlns="http://www.w3.org/2000/svg">
<g clip-path="url(#clip0_975_3269)">
<path d="M21.1483 193.423C20.882 193.483 19.7505 193.364 19.4843 193.423C19.1848 192.545 17.837 188.345 17.8203 187.466C17.6872 181.24 13.2777 178.783 12.8284 172.572C12.5289 168.387 11.7801 163.353 11.1645 159.168C11.0147 158.111 11.7635 156.13 12.8284 154.7L14.4924 153.211C14.8252 153.121 12.4956 154.789 12.8284 154.7C14.0764 157.619 9.75008 160.285 10.9814 163.204C11.2477 163.16 11.5139 163.115 11.7635 163.07C11.2976 160.196 10.7984 157.321 10.3658 154.432C10.1994 153.33 9.75008 152.049 10.1827 151.111C12.9283 145.049 16.0066 139.106 18.7355 133.045C20.7323 128.606 22.5294 124.094 24.0602 119.521C24.9754 116.796 25.4912 113.906 25.641 111.062C25.6909 109.9 24.6093 108.247 23.4778 107.577C19.9169 105.477 16.0732 103.779 12.3958 101.843C11.6304 101.44 11.048 100.74 10.3824 100.16C8.43555 98.5064 6.37222 97.3447 3.65995 99.117C3.29388 98.7596 3.02764 98.5064 2.76141 98.2383C1.81294 97.2404 -0.133901 95.766 0.115694 95.334C1.14736 93.5766 2.81133 92.1021 4.34218 90.6128C8.80162 86.2638 13.3775 82.0191 17.7205 77.5659C18.6357 76.6277 18.6856 75.0191 19.2181 73.5298C13.4275 73.2617 12.8617 68.734 11.1645 65.8894C9.06785 62.3745 8.33571 58.0255 7.7866 53.9596C6.3223 42.8936 5.49032 31.7681 3.99274 20.7021C3.24396 15.2213 1.56335 9.84467 0.34865 4.4085C0.0158558 2.88935 -0.666372 1.19148 1.72975 0.372327C3.94283 -0.402141 5.22408 -1.3671e-05 6.95461 1.87658C12.296 7.62552 14.5423 14.7149 18.3694 21.1042C19.6507 23.234 21.5144 25.0957 23.195 27.017C23.5111 27.3893 24.2433 27.583 24.809 27.6425C28.7193 28.1191 32.663 28.4617 36.5566 29.0276C38.7864 29.3553 39.8347 28.8489 40.8164 26.8383C43.2624 21.7893 46.191 16.934 48.9532 12.0191C50.8169 8.68296 52.7138 5.36169 54.6274 2.05531C54.9435 1.51914 55.4261 1.07233 55.8421 0.595731C56.1749 1.07233 56.5243 1.53403 56.8238 2.02552C56.9569 2.24892 56.9236 2.71062 57.09 2.7702C63.9123 5.16807 60.1351 9.94892 60.0353 13.7617C59.9354 17.6191 59.1534 21.4617 58.8039 25.3042C57.9054 35.0745 57.2398 44.8596 56.1582 54.6C55.5093 60.4681 52.614 65.5766 48.1212 69.9106C47.7052 70.3128 47.3225 70.7447 47.0397 71.0276C50.2844 75.8234 53.3295 80.5149 56.5908 85.0723C58.2881 87.4404 60.4679 89.5255 62.2317 91.8638C63.0138 92.9064 63.6794 94.2915 63.5962 95.4681C63.5462 96.1532 61.9156 96.7638 61.0004 97.4043C60.7508 97.583 60.4845 97.7319 60.2682 97.9255C54.8603 102.647 49.5023 107.398 44.0279 112.06C43.3623 112.626 42.1809 112.685 40.4004 113.221C41.1492 113.772 41.7981 114.249 42.4471 114.726C42.8298 115.008 43.4288 115.217 43.5453 115.574C44.6435 118.851 45.7251 122.143 46.6902 125.449C47.0896 126.804 47.0397 128.279 47.4889 129.619C49.4857 135.77 51.4492 141.936 53.6955 148.013C54.4942 150.172 56.2414 152.034 57.2398 154.164C57.9054 155.594 58.4545 157.247 58.338 158.751C57.7889 166.004 57.09 173.243 56.2913 180.481C55.8254 184.606 55.1099 188.717 54.4443 192.828C54.1115 194.838 55.5425 196.7 57.7223 197.281C60.4679 198.011 63.3299 199.396 65.3267 201.213C68.5215 204.117 71.9327 207.14 71.9992 211.772C72.0325 213.887 71.2837 215.049 68.7212 214.855C67.7727 214.781 66.8076 214.781 65.8758 214.885C54.045 216.121 47.256 206.023 47.622 198.174C48.0048 189.774 48.0214 181.374 48.1878 172.96C48.271 168.417 48.3376 163.889 48.454 159.347C48.4873 157.991 47.9715 157.291 46.84 156.204C44.6935 154.149 43.6119 151.215 41.9645 148.713C39.4852 144.9 36.8894 141.147 34.4101 137.334C33.1788 135.443 31.8809 135.8 30.8492 137.319C27.8541 141.757 24.809 146.181 22.1633 150.783C21.3646 152.168 21.5976 154.119 21.6807 155.787C22.2299 167.598 22.6625 179.409 23.6442 191.204C23.977 195.27 25.042 199.232 26.0071 203.223C26.9722 207.215 23.8938 211.757 19.3512 213.202C17.1215 213.917 14.8751 214.587 12.8284 215.674C8.86818 217.789 4.40874 217.372 2.06254 214.498C-0.366857 211.534 0.33201 207.17 3.1774 204.445C7.32069 200.483 12.0796 197.638 18.8021 196.491C16.5058 188.955 16.173 181.494 12.8451 174.047M40.1009 105.7C44.2941 101.962 47.9216 98.7447 51.5324 95.5128C53.4459 93.8 53.3794 92.3106 51.1164 91.0447C48.9366 89.8234 46.607 88.8106 44.2608 87.8574C42.6301 87.1872 41.9479 88.0213 41.9146 89.466C41.898 90.4638 42.1309 91.5808 41.715 92.4298C39.7348 96.6298 40.467 100.979 40.1009 105.7ZM21.7307 100.726C21.298 95.5574 20.9153 91.1489 20.4827 86.1149C17.3045 88.3936 14.6422 90.1511 12.2294 92.1468C11.7635 92.534 11.9632 93.934 12.3292 94.6787C13.9599 98.0298 17.6539 98.8787 21.714 100.711L21.7307 100.726Z" fill="white"/>
<path d="M40.1016 105.7C40.4676 100.979 39.7188 96.63 41.7156 92.43C42.115 91.5662 41.882 90.4641 41.9153 89.4662C41.9486 88.0215 42.6308 87.2024 44.2615 87.8577C46.6077 88.8109 48.9372 89.8236 51.117 91.0449C53.3967 92.3109 53.4466 93.8002 51.533 95.513C47.9222 98.7449 44.2948 101.962 40.1016 105.7Z" fill="#1C1815"/>
<path d="M21.7311 100.725C17.6544 98.8927 13.9603 98.0438 12.3463 94.6927C11.9802 93.9481 11.7805 92.5332 12.2465 92.1608C14.6759 90.1651 17.3216 88.3927 20.4997 86.1289C20.9324 91.1629 21.2985 95.5715 21.7477 100.74L21.7311 100.725Z" fill="#1C1815"/>
<path d="M12.8301 154.7V153.211L14.494 154.7H12.8301L12.8634 154.775L12.8301 154.7Z" fill="white"/>
<path d="M12.8287 154.7L12.5625 154.596L12.8287 154.923V154.7Z" fill="white"/>
</g>
<defs>
<clipPath id="clip0_975_3269">
<rect width="72" height="217" fill="white"/>
</clipPath>
</defs>
</svg>
