<svg width="92" height="251" viewBox="0 0 92 251" fill="none" xmlns="http://www.w3.org/2000/svg">
<path d="M22.3067 57.7683C19.8135 60.7542 17.0365 63.9939 14.3641 67.3382C12.7368 69.3686 11.214 71.5036 9.81058 73.6833C9.34776 74.385 9.10888 75.4599 9.24325 76.2811C9.76578 79.3118 10.9154 82.2828 11.0199 85.3135C11.1393 88.9862 10.4973 92.6888 10.0196 96.3615C9.91509 97.1677 9.3179 98.1381 8.64607 98.5412C8.30269 98.7502 7.16803 97.9888 6.61563 97.4364C2.64434 93.3904 1.39024 88.1203 0.345166 82.8053C0.00178412 81.0884 -0.05793 79.2819 0.0465777 77.5351C0.0913667 76.7887 0.987151 75.4301 1.34546 75.4898C3.54012 75.8182 3.79392 74.1312 4.40604 72.8472C7.13817 67.2486 9.70608 61.5604 12.6174 56.0513C13.7371 53.9313 15.6481 52.2443 17.1858 50.3333C17.5591 49.8705 17.8726 49.3778 18.1563 48.8702C19.8582 45.7051 19.7985 45.944 22.1276 48.4969C24.6059 51.2141 27.6366 53.4536 30.533 55.7677C37.0423 60.9483 43.6412 66.0094 50.1655 71.1751C52.0167 72.6531 53.7038 74.3551 55.4506 75.9526C55.6446 75.8332 55.8387 75.6988 56.0328 75.5794C55.4058 71.7126 54.7489 67.8458 54.1368 63.9641C53.9725 62.9638 53.7934 61.9635 53.7784 60.9483C53.6739 54.1404 53.7187 47.3175 53.4948 40.5096C53.3156 34.9707 52.8677 29.4318 52.5244 23.8929C52.3303 20.7875 52.0765 17.6821 51.8525 14.5767C51.7182 12.7703 51.1956 12.3224 49.2846 13.1734C44.0742 15.5322 38.7443 17.6075 33.4442 19.7573C31.4138 20.5785 30.9958 21.7131 32.1752 23.654C34.2504 27.0281 33.2949 30.3574 31.5183 33.4777C30.2493 35.7022 25.651 35.7022 24.994 33.2985C23.6355 28.2971 20.4853 23.5644 21.9484 18.0106C22.0977 17.4731 22.9188 17.0999 23.4563 16.6818C23.6504 16.5325 24.1281 16.4728 24.1132 16.3832C24.0386 13.5018 25.3822 14.9798 26.7707 15.2934C28.1442 15.592 30.0701 15.577 31.1301 14.8305C38.2665 9.78432 45.6567 5.20091 53.7038 1.69244C54.1517 1.49835 54.5548 1.14004 54.8832 0.781728C56.1821 -0.681379 57.2571 0.154683 57.9289 1.28934C58.5111 2.25977 58.8545 3.49893 58.9142 4.63358C59.3472 13.9646 60.3326 23.221 62.7661 32.2684C63.0796 33.4329 62.8109 34.7766 62.7512 36.0307C62.363 43.6747 64.0202 51.035 65.2892 58.5147C66.7075 66.8007 67.2151 75.236 67.9765 83.6115C68.1856 85.8062 67.7974 88.0606 67.9019 90.2701C67.9467 91.1659 68.5887 92.0169 68.9022 92.9127C69.1709 93.689 69.38 94.4952 69.6039 95.3014C68.8723 95.2119 68.1258 95.1074 67.3943 95.0178C67.0808 94.9879 66.7523 95.0178 66.4836 95.0178C65.5878 99.5564 64.5129 103.946 63.9008 108.395C62.8407 116.188 62.1391 124.026 61.1388 131.834C60.3923 137.597 59.3472 143.315 58.6007 149.063C58.4365 150.287 58.6604 151.81 59.2875 152.84C61.3179 156.214 63.856 159.29 65.7222 162.739C67.0658 165.217 68.1408 168.039 68.4991 170.816C69.2157 176.384 71.4552 181.341 73.9036 186.223C78.6363 195.629 81.6521 205.587 83.7572 215.844C85.28 223.249 86.5341 230.714 88.0271 238.134C88.1764 238.865 89.0274 239.582 89.7291 240.03C92.5956 241.836 92.7299 244.27 90.2367 246.584C87.0865 249.51 83.5482 251.003 79.2634 249.973C78.3527 249.749 77.2927 249.077 76.8149 248.301C76.0237 247.032 75.516 245.554 75.1428 244.09C74.6053 241.97 75.2622 240.164 77.442 239.403C79.4426 238.701 81.5327 238.268 84.22 237.551C83.16 233.983 82.1299 230.146 80.8609 226.384C78.1586 218.322 75.3518 210.305 72.56 202.287C71.5149 199.287 70.3802 196.316 68.6484 193.3C68.2901 201.407 67.9467 209.513 67.5884 217.874C67.5735 217.874 66.7075 218.098 66.5284 217.844C64.9458 215.679 61.4822 215.022 61.5717 211.484C61.6016 210.454 61.0193 209.379 60.6013 208.379C58.8993 204.273 57.1376 200.197 55.4953 196.316C52.0615 196.435 48.6427 196.763 45.2536 196.599C42.835 196.495 42.1632 197.674 41.8795 199.645C41.357 203.213 40.9091 206.796 40.2372 210.335C39.9237 211.962 39.2369 213.544 38.5203 215.052C38.2516 215.605 37.4454 216.142 36.8482 216.202C36.4451 216.247 35.624 215.5 35.5344 215.008C34.9073 211.544 34.4296 208.05 33.9071 204.572C33.7279 203.362 33.5487 202.138 33.2651 200.257C26.3676 211.917 23.5757 224.413 19.1864 236.372C19.5895 235.909 20.0075 235.461 20.4106 234.998C20.8436 234.491 21.2467 233.983 21.9335 233.132C22.1126 234.237 22.2321 234.968 22.4261 236.193C23.6354 235.939 24.8447 235.805 25.9645 235.431C29.0698 234.386 30.8614 235.312 30.9361 238.522C31.0107 241.552 30.6972 244.598 30.2642 247.599C30.1597 248.286 28.9355 249.152 28.0994 249.346C23.0532 250.48 18.216 249.958 13.8416 246.957C11.841 245.583 11.7514 242.971 13.4833 241.119C13.9461 240.627 14.3193 239.895 14.394 239.238C14.6926 236.402 14.5881 233.505 15.1554 230.728C16.9768 221.83 18.8281 212.932 21.0526 204.124C22.6352 197.868 24.8746 191.792 26.8005 185.626C27.0245 184.909 27.2484 184.133 27.1887 183.401C26.7856 178.609 27.3977 174.041 29.5476 169.681C30.2045 168.367 30.0851 166.576 30.9211 165.471C32.5634 163.336 34.355 161.082 36.5944 159.693C39.6699 157.782 39.9984 154.975 40.4015 151.974C40.8046 149.018 40.8195 145.928 41.7451 143.151C44.2682 135.582 47.0153 128.072 49.9863 120.652C52.0018 115.621 54.6444 110.843 56.854 105.887C58.2872 102.677 59.5264 99.3623 60.6759 96.033C60.9148 95.3462 60.5864 94.1071 60.0638 93.5696C56.5852 90.0313 52.9424 86.6422 49.4041 83.1636C45.8657 79.685 42.4468 76.072 38.8637 72.6531C35.7733 69.6971 32.5037 66.9351 29.3236 64.0835C27.0991 62.0979 24.8746 60.1122 22.3067 57.8131V57.7683ZM89.4902 243.538C89.326 243.09 89.1468 242.657 88.9826 242.209C87.9525 242.523 86.9223 242.851 85.8921 243.165C86.0564 243.687 86.2206 244.195 86.3848 244.718C87.415 244.329 88.4601 243.926 89.4902 243.538ZM30.4882 24.4303C30.2642 24.4303 30.0552 24.4602 29.8313 24.4751V28.5061L30.742 28.4464C30.6524 27.1177 30.5777 25.774 30.4882 24.4452V24.4303Z" fill="white"/>
<path d="M89.4906 243.54C88.4605 243.928 87.4154 244.331 86.3853 244.719C86.221 244.197 86.0568 243.689 85.8926 243.166C86.9227 242.853 87.9529 242.524 88.983 242.211C89.1473 242.659 89.3264 243.092 89.4906 243.54Z" fill="#1C1815"/>
<path d="M30.487 24.4309C30.5765 25.7597 30.6512 27.1034 30.7408 28.4321L29.8301 28.4918V24.4608C30.054 24.4608 30.263 24.4309 30.487 24.416V24.4309Z" fill="#1C1815"/>
</svg>
