<svg width="67" height="67" viewBox="0 0 67 67" fill="none" xmlns="http://www.w3.org/2000/svg">
<path d="M21.4405 4.01855C11.836 4.01855 4.02051 11.8341 4.02051 21.4386V45.5586C4.02051 55.163 11.836 62.9786 21.4405 62.9786H45.5605C55.165 62.9786 62.9805 55.163 62.9805 45.5586V21.4386C62.9805 11.8341 55.165 4.01855 45.5605 4.01855H21.4405ZM21.4405 6.69855H45.5605C53.7164 6.69855 60.3005 13.2827 60.3005 21.4386V45.5586C60.3005 53.7144 53.7164 60.2986 45.5605 60.2986H21.4405C13.2846 60.2986 6.70051 53.7144 6.70051 45.5586V21.4386C6.70051 13.2827 13.2846 6.69855 21.4405 6.69855ZM49.5805 14.7386C48.8697 14.7386 48.1881 15.0209 47.6855 15.5235C47.1829 16.0261 46.9005 16.7078 46.9005 17.4186C46.9005 18.1293 47.1829 18.811 47.6855 19.3136C48.1881 19.8162 48.8697 20.0986 49.5805 20.0986C50.2913 20.0986 50.973 19.8162 51.4756 19.3136C51.9782 18.811 52.2605 18.1293 52.2605 17.4186C52.2605 16.7078 51.9782 16.0261 51.4756 15.5235C50.973 15.0209 50.2913 14.7386 49.5805 14.7386ZM33.5005 18.7586C25.3757 18.7586 18.7605 25.3737 18.7605 33.4986C18.7605 41.6234 25.3757 48.2386 33.5005 48.2386C41.6253 48.2386 48.2405 41.6234 48.2405 33.4986C48.2405 25.3737 41.6253 18.7586 33.5005 18.7586ZM33.5005 21.4386C40.1769 21.4386 45.5605 26.8221 45.5605 33.4986C45.5605 40.175 40.1769 45.5586 33.5005 45.5586C26.8241 45.5586 21.4405 40.175 21.4405 33.4986C21.4405 26.8221 26.8241 21.4386 33.5005 21.4386Z" fill="white"/>
</svg>
