<svg width="77" height="59" viewBox="0 0 77 59" fill="none" xmlns="http://www.w3.org/2000/svg">
<path d="M38.9617 2.80762C28.5097 2.80762 18.6947 3.59925 13.4687 4.7063C9.98675 5.49793 6.97485 7.87282 6.34402 11.5156C5.71318 15.3129 5.07617 21.0151 5.07617 28.1398C5.07617 35.2645 5.70701 40.8059 6.49864 44.764C7.13565 48.246 10.1414 50.7817 13.6233 51.5733C19.1709 52.6804 28.6643 53.472 39.1163 53.472C49.5683 53.472 59.0617 52.6804 64.6031 51.5733C68.0912 50.7817 71.0969 48.4068 71.7278 44.764C72.3648 40.8059 73.1564 35.1099 73.311 27.9852C73.311 20.8605 72.5194 15.1583 71.7278 11.2001C71.0969 7.7182 68.0912 5.18251 64.6031 4.39088C59.0617 3.59925 49.4075 2.80762 38.9617 2.80762ZM38.9617 5.97414C50.3599 5.97414 59.5379 6.92039 63.9723 7.71202C66.3472 8.34903 68.2458 9.93229 68.5613 11.9918C69.5137 17.057 70.1445 22.4438 70.1445 27.9852C69.9899 34.7883 69.1983 40.3297 68.5613 44.2879C68.0912 47.2936 64.9247 48.246 63.9723 48.5676C58.2701 49.6747 48.7705 50.4601 39.2709 50.4601C29.7713 50.4601 20.1172 49.8293 14.5757 48.5676C12.2008 47.9306 10.3022 46.3473 9.98675 44.2879C8.71891 39.8535 8.2427 33.9967 8.2427 28.1398C8.2427 20.8544 8.8797 15.4737 9.51054 12.1526C9.98675 9.1407 13.3079 8.18825 14.0995 7.87285C19.3255 6.7658 28.9859 5.97414 38.9617 5.97414ZM30.4084 15.4737V40.8059L52.574 28.1398L30.4084 15.4737ZM33.5749 20.8605L46.241 28.1398L33.5749 35.4191V20.8605Z" fill="white"/>
</svg>
